<svg preserveAspectRatio="xMidYMin slice" width="100%" height="100%" viewBox="0 0 498 201" fill="none" xmlns="http://www.w3.org/2000/svg" class="jsx-78134b6655d3cf17 relative w-full"><g id="JWT Illustrattion" class="jsx-78134b6655d3cf17"><g id="Motherboard" clip-path="url(#clip0_365_3087)" class="jsx-78134b6655d3cf17"><g id="back-blue-glow" filter="url(#filter0_f_365_3087)" class="jsx-78134b6655d3cf17"><ellipse cx="365" cy="145" rx="9" ry="27" fill="#61AAF9" class="jsx-78134b6655d3cf17"></ellipse></g><g id="back-brand-glow" filter="url(#filter1_f_365_3087)" class="jsx-78134b6655d3cf17"><ellipse cx="265" cy="165" rx="9" ry="27" fill="#6B5DF7" class="jsx-78134b6655d3cf17"></ellipse></g><path id="left-shine" d="M256 125L256 217" stroke="url(#paint0_linear_365_3087)" class="jsx-78134b6655d3cf17"></path><path id="right-shine" d="M369 125L369 187" stroke="url(#paint1_linear_365_3087)" class="jsx-78134b6655d3cf17"></path><g id="chip-group" class="jsx-78134b6655d3cf17"><g id="chip" filter="url(#filter2_dii_365_3087)" class="jsx-78134b6655d3cf17"><rect x="255.925" y="112.029" width="113.286" height="113.286" rx="7.8903" fill="#232429" fill-opacity="0.98" shape-rendering="crispEdges" class="jsx-78134b6655d3cf17"></rect></g><g id="logo" class="jsx-78134b6655d3cf17"><g id="Monogram" filter="url(#filter3_d_365_3087)" class="jsx-78134b6655d3cf17"><path d="M357.49 127.266L349.524 123.322C349.115 123.119 348.634 123.119 348.225 123.321L339.345 127.704V135.92L348.875 140.655L356.48 136.806V139.555L348.875 143.373L339.345 138.7V140.617C339.345 141.014 339.571 141.376 339.927 141.55L348.372 145.679C348.785 145.881 349.268 145.878 349.678 145.67L358.374 141.266V134.758C358.374 134.037 357.621 133.564 356.972 133.877L350.891 136.806V134.21L358.374 130.422V128.69C358.374 128.086 358.032 127.534 357.49 127.266Z" fill="url(#paint2_linear_365_3087)" class="jsx-78134b6655d3cf17"></path><path d="M339.123 127.255L338.845 127.393V127.704V135.92V136.23L339.122 136.368L348.652 141.103L348.877 141.214L349.1 141.101L355.98 137.619V139.247L348.872 142.815L339.565 138.251L338.845 137.898V138.7V140.617C338.845 141.205 339.179 141.741 339.707 142L348.152 146.129C348.706 146.399 349.354 146.395 349.904 146.116L358.6 141.712L358.874 141.573V141.266V134.758C358.874 133.669 357.736 132.954 356.755 133.426L351.391 136.01V134.517L358.6 130.868L358.874 130.73V130.422V128.69C358.874 127.896 358.424 127.171 357.712 126.818L349.746 122.874C349.197 122.602 348.553 122.601 348.003 122.872L339.123 127.255Z" stroke="#121212" class="jsx-78134b6655d3cf17"></path></g><g id="Monogram_2" opacity="0.4" filter="url(#filter4_f_365_3087)" class="jsx-78134b6655d3cf17"><path d="M357.49 127.266L349.524 123.322C349.115 123.119 348.634 123.119 348.225 123.321L339.345 127.704V135.92L348.875 140.655L356.48 136.806V139.555L348.875 143.373L339.345 138.7V140.617C339.345 141.014 339.571 141.376 339.927 141.55L348.372 145.679C348.785 145.881 349.268 145.878 349.678 145.67L358.374 141.266V134.758C358.374 134.037 357.621 133.564 356.972 133.877L350.891 136.806V134.21L358.374 130.422V128.69C358.374 128.086 358.032 127.534 357.49 127.266Z" fill="white" class="jsx-78134b6655d3cf17"></path></g></g><g id="chip-top" filter="url(#filter5_d_365_3087)" class="jsx-78134b6655d3cf17"><path d="M259.225 86.4452C259.225 85.085 260.327 83.9824 261.687 83.9824C263.047 83.9824 264.15 85.085 264.15 86.4452V99.9902C264.15 101.35 263.047 102.453 261.687 102.453C260.327 102.453 259.225 101.35 259.225 99.9902V86.4452Z" fill="#232429" class="jsx-78134b6655d3cf17"></path><path d="M267.45 86.4452C267.45 85.085 268.552 83.9824 269.912 83.9824C271.273 83.9824 272.375 85.085 272.375 86.4452V99.9902C272.375 101.35 271.273 102.453 269.912 102.453C268.552 102.453 267.45 101.35 267.45 99.9902V86.4452Z" fill="#232429" class="jsx-78134b6655d3cf17"></path><path d="M275.675 86.4452C275.675 85.0851 276.777 83.9825 278.138 83.9825C279.498 83.9825 280.6 85.0851 280.6 86.4452V99.9902C280.6 101.35 279.498 102.453 278.138 102.453C276.777 102.453 275.675 101.35 275.675 99.9902V86.4452Z" fill="#232429" class="jsx-78134b6655d3cf17"></path><path d="M283.9 86.4452C283.9 85.0851 285.002 83.9825 286.362 83.9825C287.723 83.9825 288.825 85.0851 288.825 86.4452V99.9902C288.825 101.35 287.723 102.453 286.362 102.453C285.002 102.453 283.9 101.35 283.9 99.9902V86.4452Z" fill="#232429" class="jsx-78134b6655d3cf17"></path><path d="M292.125 86.4452C292.125 85.085 293.227 83.9824 294.587 83.9824C295.948 83.9824 297.05 85.085 297.05 86.4452V99.9902C297.05 101.35 295.948 102.453 294.587 102.453C293.227 102.453 292.125 101.35 292.125 99.9902V86.4452Z" fill="#232429" class="jsx-78134b6655d3cf17"></path><path d="M300.35 86.4452C300.35 85.085 301.452 83.9824 302.813 83.9824C304.173 83.9824 305.275 85.085 305.275 86.4452V99.9902C305.275 101.35 304.173 102.453 302.813 102.453C301.452 102.453 300.35 101.35 300.35 99.9902V86.4452Z" fill="#232429" class="jsx-78134b6655d3cf17"></path><path d="M308.575 86.4452C308.575 85.085 309.677 83.9824 311.038 83.9824C312.398 83.9824 313.5 85.085 313.5 86.4452V99.9902C313.5 101.35 312.398 102.453 311.038 102.453C309.677 102.453 308.575 101.35 308.575 99.9902V86.4452Z" fill="#232429" class="jsx-78134b6655d3cf17"></path><path d="M316.8 86.4452C316.8 85.085 317.902 83.9824 319.263 83.9824C320.623 83.9824 321.725 85.085 321.725 86.4452V99.9902C321.725 101.35 320.623 102.453 319.263 102.453C317.902 102.453 316.8 101.35 316.8 99.9902V86.4452Z" fill="#232429" class="jsx-78134b6655d3cf17"></path><path d="M325.025 86.4452C325.025 85.0851 326.128 83.9825 327.488 83.9825C328.848 83.9825 329.951 85.0851 329.951 86.4452V99.9902C329.951 101.35 328.848 102.453 327.488 102.453C326.128 102.453 325.025 101.35 325.025 99.9902V86.4452Z" fill="#232429" class="jsx-78134b6655d3cf17"></path><path d="M333.25 86.4452C333.25 85.0851 334.353 83.9825 335.713 83.9825C337.073 83.9825 338.175 85.0851 338.175 86.4452V99.9902C338.175 101.35 337.073 102.453 335.713 102.453C334.353 102.453 333.25 101.35 333.25 99.9902V86.4452Z" fill="#232429" class="jsx-78134b6655d3cf17"></path><path d="M341.475 86.4452C341.475 85.0851 342.578 83.9825 343.938 83.9825C345.298 83.9825 346.4 85.0851 346.4 86.4452V99.9902C346.4 101.35 345.298 102.453 343.938 102.453C342.578 102.453 341.475 101.35 341.475 99.9902V86.4452Z" fill="#232429" class="jsx-78134b6655d3cf17"></path><path d="M349.7 87.0608C349.7 85.3607 351.078 83.9824 352.778 83.9824C354.479 83.9824 355.857 85.3607 355.857 87.0608V99.3745C355.857 101.075 354.479 102.453 352.778 102.453C351.078 102.453 349.7 101.075 349.7 99.3745V87.0608Z" fill="#232429" class="jsx-78134b6655d3cf17"></path><path d="M359.156 86.4452C359.156 85.085 360.259 83.9824 361.619 83.9824C362.979 83.9824 364.082 85.085 364.082 86.4452V99.9902C364.082 101.35 362.979 102.453 361.619 102.453C360.259 102.453 359.156 101.35 359.156 99.9902V86.4452Z" fill="#232429" class="jsx-78134b6655d3cf17"></path></g><g id="chip-left" filter="url(#filter6_d_365_3087)" class="jsx-78134b6655d3cf17"><path d="M381.8 120.254C380.44 120.254 379.337 119.151 379.337 117.791C379.337 116.431 380.44 115.328 381.8 115.328L395.345 115.328C396.705 115.328 397.807 116.431 397.807 117.791C397.807 119.151 396.705 120.254 395.345 120.254L381.8 120.254Z" fill="#232429" class="jsx-78134b6655d3cf17"></path><path d="M382.415 129.71C380.715 129.71 379.337 128.332 379.337 126.632C379.337 124.931 380.715 123.553 382.415 123.553L394.729 123.553C396.429 123.553 397.807 124.931 397.807 126.632C397.807 128.332 396.429 129.71 394.729 129.71L382.415 129.71Z" fill="#232429" class="jsx-78134b6655d3cf17"></path><path d="M381.8 137.935C380.44 137.935 379.337 136.832 379.337 135.472C379.337 134.112 380.44 133.01 381.8 133.01L395.345 133.01C396.705 133.01 397.807 134.112 397.807 135.472C397.807 136.832 396.705 137.935 395.345 137.935H381.8Z" fill="#232429" class="jsx-78134b6655d3cf17"></path><path d="M381.8 146.16C380.44 146.16 379.337 145.057 379.337 143.697C379.337 142.337 380.44 141.235 381.8 141.235L395.345 141.235C396.705 141.235 397.807 142.337 397.807 143.697C397.807 145.057 396.705 146.16 395.345 146.16H381.8Z" fill="#232429" class="jsx-78134b6655d3cf17"></path><path d="M381.8 154.385C380.44 154.385 379.337 153.282 379.337 151.922C379.337 150.562 380.44 149.46 381.8 149.46H395.345C396.705 149.46 397.807 150.562 397.807 151.922C397.807 153.282 396.705 154.385 395.345 154.385H381.8Z" fill="#232429" class="jsx-78134b6655d3cf17"></path><path d="M381.8 162.61C380.44 162.61 379.337 161.508 379.337 160.147C379.337 158.787 380.44 157.685 381.8 157.685H395.345C396.705 157.685 397.807 158.787 397.807 160.147C397.807 161.508 396.705 162.61 395.345 162.61H381.8Z" fill="#232429" class="jsx-78134b6655d3cf17"></path><path d="M381.8 170.835C380.44 170.835 379.337 169.733 379.337 168.372C379.337 167.012 380.44 165.91 381.8 165.91H395.345C396.705 165.91 397.807 167.012 397.807 168.372C397.807 169.733 396.705 170.835 395.345 170.835H381.8Z" fill="#232429" class="jsx-78134b6655d3cf17"></path><path d="M381.8 179.06C380.44 179.06 379.337 177.958 379.337 176.597C379.337 175.237 380.44 174.135 381.8 174.135H395.345C396.705 174.135 397.807 175.237 397.807 176.597C397.807 177.958 396.705 179.06 395.345 179.06H381.8Z" fill="#232429" class="jsx-78134b6655d3cf17"></path><path d="M381.8 187.285C380.44 187.285 379.337 186.183 379.337 184.823C379.337 183.462 380.44 182.36 381.8 182.36H395.345C396.705 182.36 397.807 183.462 397.807 184.823C397.807 186.183 396.705 187.285 395.345 187.285H381.8Z" fill="#232429" class="jsx-78134b6655d3cf17"></path><path d="M381.8 195.51C380.44 195.51 379.337 194.408 379.337 193.048C379.337 191.687 380.44 190.585 381.8 190.585H395.345C396.705 190.585 397.807 191.687 397.807 193.048C397.807 194.408 396.705 195.51 395.345 195.51H381.8Z" fill="#232429" class="jsx-78134b6655d3cf17"></path><path d="M381.8 203.735C380.44 203.735 379.337 202.633 379.337 201.273C379.337 199.912 380.44 198.81 381.8 198.81H395.345C396.705 198.81 397.807 199.912 397.807 201.273C397.807 202.633 396.705 203.735 395.345 203.735H381.8Z" fill="#232429" class="jsx-78134b6655d3cf17"></path><path d="M381.8 211.96C380.44 211.96 379.337 210.858 379.337 209.498C379.337 208.137 380.44 207.035 381.8 207.035H395.345C396.705 207.035 397.807 208.137 397.807 209.498C397.807 210.858 396.705 211.96 395.345 211.96H381.8Z" fill="#232429" class="jsx-78134b6655d3cf17"></path><path d="M381.8 220.185C380.44 220.185 379.337 219.083 379.337 217.723C379.337 216.363 380.44 215.26 381.8 215.26H395.345C396.705 215.26 397.807 216.363 397.807 217.723C397.807 219.083 396.705 220.185 395.345 220.185H381.8Z" fill="#232429" class="jsx-78134b6655d3cf17"></path></g><g id="chip-right" filter="url(#filter7_d_365_3087)" class="jsx-78134b6655d3cf17"><path d="M230.342 120.254C228.982 120.254 227.879 119.151 227.879 117.791C227.879 116.431 228.982 115.328 230.342 115.328L243.887 115.328C245.247 115.328 246.349 116.431 246.349 117.791C246.349 119.151 245.247 120.254 243.887 120.254L230.342 120.254Z" fill="#232429" class="jsx-78134b6655d3cf17"></path><path d="M230.957 129.71C229.257 129.71 227.879 128.332 227.879 126.632C227.879 124.931 229.257 123.553 230.957 123.553L243.271 123.553C244.971 123.553 246.349 124.931 246.349 126.632C246.349 128.332 244.971 129.71 243.271 129.71L230.957 129.71Z" fill="#232429" class="jsx-78134b6655d3cf17"></path><path d="M230.342 137.935C228.982 137.935 227.879 136.832 227.879 135.472C227.879 134.112 228.982 133.01 230.342 133.01L243.887 133.01C245.247 133.01 246.349 134.112 246.349 135.472C246.349 136.832 245.247 137.935 243.887 137.935H230.342Z" fill="#232429" class="jsx-78134b6655d3cf17"></path><path d="M230.342 146.16C228.982 146.16 227.879 145.057 227.879 143.697C227.879 142.337 228.982 141.235 230.342 141.235L243.887 141.235C245.247 141.235 246.349 142.337 246.349 143.697C246.349 145.057 245.247 146.16 243.887 146.16H230.342Z" fill="#232429" class="jsx-78134b6655d3cf17"></path><path d="M230.342 154.385C228.982 154.385 227.879 153.282 227.879 151.922C227.879 150.562 228.982 149.46 230.342 149.46H243.887C245.247 149.46 246.349 150.562 246.349 151.922C246.349 153.282 245.247 154.385 243.887 154.385H230.342Z" fill="#232429" class="jsx-78134b6655d3cf17"></path><path d="M230.342 162.61C228.982 162.61 227.879 161.508 227.879 160.147C227.879 158.787 228.982 157.685 230.342 157.685H243.887C245.247 157.685 246.349 158.787 246.349 160.147C246.349 161.508 245.247 162.61 243.887 162.61H230.342Z" fill="#232429" class="jsx-78134b6655d3cf17"></path><path d="M230.342 170.835C228.982 170.835 227.879 169.733 227.879 168.372C227.879 167.012 228.982 165.91 230.342 165.91H243.887C245.247 165.91 246.349 167.012 246.349 168.372C246.349 169.733 245.247 170.835 243.887 170.835H230.342Z" fill="#232429" class="jsx-78134b6655d3cf17"></path><path d="M230.342 179.06C228.982 179.06 227.879 177.958 227.879 176.597C227.879 175.237 228.982 174.135 230.342 174.135H243.887C245.247 174.135 246.349 175.237 246.349 176.597C246.349 177.958 245.247 179.06 243.887 179.06H230.342Z" fill="#232429" class="jsx-78134b6655d3cf17"></path><path d="M230.342 187.285C228.982 187.285 227.879 186.183 227.879 184.823C227.879 183.462 228.982 182.36 230.342 182.36H243.887C245.247 182.36 246.349 183.462 246.349 184.823C246.349 186.183 245.247 187.285 243.887 187.285H230.342Z" fill="#232429" class="jsx-78134b6655d3cf17"></path><path d="M230.342 195.51C228.982 195.51 227.879 194.408 227.879 193.048C227.879 191.687 228.982 190.585 230.342 190.585H243.887C245.247 190.585 246.349 191.687 246.349 193.048C246.349 194.408 245.247 195.51 243.887 195.51H230.342Z" fill="#232429" class="jsx-78134b6655d3cf17"></path><path d="M230.342 203.735C228.982 203.735 227.879 202.633 227.879 201.273C227.879 199.912 228.982 198.81 230.342 198.81H243.887C245.247 198.81 246.349 199.912 246.349 201.273C246.349 202.633 245.247 203.735 243.887 203.735H230.342Z" fill="#232429" class="jsx-78134b6655d3cf17"></path><path d="M230.342 211.96C228.982 211.96 227.879 210.858 227.879 209.498C227.879 208.137 228.982 207.035 230.342 207.035H243.887C245.247 207.035 246.349 208.137 246.349 209.498C246.349 210.858 245.247 211.96 243.887 211.96H230.342Z" fill="#232429" class="jsx-78134b6655d3cf17"></path><path d="M230.342 220.185C228.982 220.185 227.879 219.083 227.879 217.723C227.879 216.363 228.982 215.26 230.342 215.26H243.887C245.247 215.26 246.349 216.363 246.349 217.723C246.349 219.083 245.247 220.185 243.887 220.185H230.342Z" fill="#232429" class="jsx-78134b6655d3cf17"></path></g><g id="front-glow-brand" opacity="0.3" filter="url(#filter8_f_365_3087)" class="jsx-78134b6655d3cf17"><ellipse cx="262" cy="164" rx="7" ry="20" fill="#7F7CFD" class="jsx-78134b6655d3cf17"></ellipse></g><g id="front-glow-blue" opacity="0.3" filter="url(#filter9_f_365_3087)" class="jsx-78134b6655d3cf17"><ellipse cx="366" cy="163" rx="7" ry="20" fill="#3C88F5" class="jsx-78134b6655d3cf17"></ellipse></g></g><g id="JSON Web Tokens" opacity="0.7" class="jsx-78134b6655d3cf17"><path d="M320.995 57.1745C320.487 57.1745 320.044 57.0656 319.666 56.8478C319.289 56.6299 318.991 56.3213 318.773 55.922C318.563 55.5153 318.45 55.0397 318.436 54.4951L319.35 54.408C319.372 55.0325 319.517 55.4972 319.786 55.8022C320.055 56.1071 320.458 56.2596 320.995 56.2596C321.532 56.2596 321.935 56.1071 322.204 55.8022C322.48 55.4899 322.618 55.0252 322.618 54.408V49.267H323.555V54.408C323.555 55.2648 323.326 55.9401 322.869 56.4339C322.411 56.9276 321.787 57.1745 320.995 57.1745Z" fill="white" class="jsx-78134b6655d3cf17"></path><path d="M327.918 57.1745C327.374 57.1745 326.891 57.062 326.469 56.8369C326.048 56.6118 325.711 56.3032 325.457 55.9111C325.202 55.5117 325.054 55.0506 325.01 54.5278L325.99 54.4625C326.041 54.8473 326.15 55.1741 326.317 55.4427C326.491 55.7114 326.713 55.9147 326.981 56.0527C327.257 56.1906 327.577 56.2596 327.94 56.2596C328.303 56.2596 328.608 56.216 328.855 56.1289C329.102 56.0345 329.287 55.9002 329.41 55.7259C329.541 55.5444 329.606 55.3302 329.606 55.0833C329.606 54.8364 329.548 54.6222 329.432 54.4407C329.323 54.2519 329.113 54.0776 328.8 53.9179C328.495 53.7581 328.042 53.5947 327.439 53.4277C326.902 53.2752 326.466 53.1082 326.132 52.9267C325.805 52.7452 325.565 52.5237 325.413 52.2623C325.268 52.0009 325.195 51.6778 325.195 51.2929C325.195 50.8573 325.297 50.476 325.5 50.1493C325.711 49.8153 326.008 49.5575 326.393 49.376C326.778 49.1872 327.236 49.0928 327.766 49.0928C328.296 49.0928 328.75 49.2017 329.127 49.4195C329.505 49.6301 329.802 49.9206 330.02 50.2909C330.245 50.6612 330.387 51.0824 330.445 51.5543L329.465 51.6197C329.421 51.3075 329.33 51.0315 329.192 50.7919C329.054 50.545 328.866 50.3526 328.626 50.2146C328.386 50.0767 328.092 50.0077 327.744 50.0077C327.265 50.0077 326.883 50.1239 326.6 50.3562C326.317 50.5813 326.175 50.879 326.175 51.2494C326.175 51.489 326.226 51.6887 326.328 51.8484C326.437 52.0009 326.626 52.1389 326.894 52.2623C327.163 52.3785 327.541 52.5056 328.027 52.6435C328.659 52.8178 329.16 53.0138 329.53 53.2317C329.908 53.4495 330.176 53.7109 330.336 54.0159C330.503 54.3136 330.587 54.6767 330.587 55.1051C330.587 55.5117 330.474 55.8711 330.249 56.1834C330.024 56.4956 329.712 56.7389 329.312 56.9131C328.913 57.0874 328.448 57.1745 327.918 57.1745Z" fill="white" class="jsx-78134b6655d3cf17"></path><path d="M334.329 57.1745C333.719 57.1745 333.2 57.0184 332.772 56.7062C332.35 56.3939 332.027 55.9365 331.802 55.3338C331.584 54.7311 331.475 54.0014 331.475 53.1445C331.475 52.2732 331.584 51.5362 331.802 50.9335C332.027 50.3308 332.35 49.8734 332.772 49.5611C333.2 49.2489 333.719 49.0928 334.329 49.0928C334.939 49.0928 335.455 49.2489 335.876 49.5611C336.304 49.8734 336.627 50.3308 336.845 50.9335C337.07 51.5362 337.183 52.2732 337.183 53.1445C337.183 54.0014 337.07 54.7311 336.845 55.3338C336.627 55.9365 336.304 56.3939 335.876 56.7062C335.455 57.0184 334.939 57.1745 334.329 57.1745ZM334.329 56.2596C334.729 56.2596 335.066 56.1434 335.342 55.9111C335.625 55.6715 335.839 55.3193 335.985 54.8546C336.13 54.3898 336.203 53.8198 336.203 53.1445C336.203 52.4692 336.13 51.8992 335.985 51.4345C335.839 50.9625 335.625 50.6067 335.342 50.3671C335.066 50.1275 334.729 50.0077 334.329 50.0077C333.93 50.0077 333.588 50.1275 333.305 50.3671C333.029 50.6067 332.819 50.9625 332.674 51.4345C332.528 51.8992 332.456 52.4692 332.456 53.1445C332.456 53.8198 332.528 54.3898 332.674 54.8546C332.819 55.3193 333.029 55.6715 333.305 55.9111C333.588 56.1434 333.93 56.2596 334.329 56.2596Z" fill="white" class="jsx-78134b6655d3cf17"></path><path d="M338.355 57.0003V49.267H339.684L342.428 55.9329V49.267H343.365V57.0003H342.036L339.292 50.3344V57.0003H338.355Z" fill="white" class="jsx-78134b6655d3cf17"></path><path d="M351.83 57.0003L350.981 49.267H351.961L352.68 56.4557H352.571L353.421 50.1384H354.423L355.272 56.4557H355.163L355.882 49.267H356.863L356.013 57.0003H354.597L353.791 50.9008H354.052L353.246 57.0003H351.83Z" fill="white" class="jsx-78134b6655d3cf17"></path><path d="M358.165 57.0003V49.267H362.871V50.182H359.102V52.6762H362.74V53.5693H359.102V56.0853H362.958V57.0003H358.165Z" fill="white" class="jsx-78134b6655d3cf17"></path><path d="M364.696 57.0003V49.267H366.875C367.724 49.267 368.363 49.4558 368.791 49.8334C369.227 50.211 369.445 50.7266 369.445 51.3801C369.445 51.6996 369.369 51.9864 369.216 52.2405C369.064 52.4947 368.85 52.6943 368.574 52.8396C368.298 52.9848 367.978 53.0574 367.615 53.0574V52.9921C368.065 52.9921 368.45 53.0683 368.77 53.2208C369.096 53.3733 369.343 53.5875 369.51 53.8634C369.685 54.1393 369.772 54.4661 369.772 54.8437C369.772 55.5117 369.539 56.0381 369.075 56.423C368.61 56.8078 367.967 57.0003 367.147 57.0003H364.696ZM365.633 56.0853H367.158C367.717 56.0853 368.127 55.9764 368.388 55.7586C368.657 55.5408 368.791 55.2358 368.791 54.8437C368.791 54.4298 368.654 54.1067 368.378 53.8743C368.102 53.6419 367.695 53.5258 367.158 53.5258H365.633V56.0853ZM365.633 52.6108H366.918C367.455 52.6108 367.848 52.5056 368.094 52.295C368.341 52.0844 368.465 51.7867 368.465 51.4018C368.465 51.0097 368.341 50.7084 368.094 50.4978C367.848 50.2872 367.455 50.182 366.918 50.182H365.633V52.6108Z" fill="white" class="jsx-78134b6655d3cf17"></path><path d="M379.577 57.0003V50.182H377.213V49.267H382.877V50.182H380.513V57.0003H379.577Z" fill="white" class="jsx-78134b6655d3cf17"></path><path d="M386.576 57.1745C385.966 57.1745 385.447 57.0184 385.018 56.7062C384.597 56.3939 384.274 55.9365 384.049 55.3338C383.831 54.7311 383.722 54.0014 383.722 53.1445C383.722 52.2732 383.831 51.5362 384.049 50.9335C384.274 50.3308 384.597 49.8734 385.018 49.5611C385.447 49.2489 385.966 49.0928 386.576 49.0928C387.186 49.0928 387.701 49.2489 388.123 49.5611C388.551 49.8734 388.874 50.3308 389.092 50.9335C389.317 51.5362 389.43 52.2732 389.43 53.1445C389.43 54.0014 389.317 54.7311 389.092 55.3338C388.874 55.9365 388.551 56.3939 388.123 56.7062C387.701 57.0184 387.186 57.1745 386.576 57.1745ZM386.576 56.2596C386.975 56.2596 387.313 56.1434 387.589 55.9111C387.872 55.6715 388.086 55.3193 388.232 54.8546C388.377 54.3898 388.449 53.8198 388.449 53.1445C388.449 52.4692 388.377 51.8992 388.232 51.4345C388.086 50.9625 387.872 50.6067 387.589 50.3671C387.313 50.1275 386.975 50.0077 386.576 50.0077C386.177 50.0077 385.835 50.1275 385.552 50.3671C385.276 50.6067 385.066 50.9625 384.92 51.4345C384.775 51.8992 384.703 52.4692 384.703 53.1445C384.703 53.8198 384.775 54.3898 384.92 54.8546C385.066 55.3193 385.276 55.6715 385.552 55.9111C385.835 56.1434 386.177 56.2596 386.576 56.2596Z" fill="white" class="jsx-78134b6655d3cf17"></path><path d="M391.321 54.5387V53.2752L394.675 49.267H395.83L391.321 54.5387ZM390.493 57.0003V49.267H391.43V57.0003H390.493ZM394.784 57.0003L392.083 53.0792L392.737 52.4039L395.939 57.0003H394.784Z" fill="white" class="jsx-78134b6655d3cf17"></path><path d="M397.35 57.0003V49.267H402.056V50.182H398.287V52.6762H401.925V53.5693H398.287V56.0853H402.143V57.0003H397.35Z" fill="white" class="jsx-78134b6655d3cf17"></path><path d="M403.663 57.0003V49.267H404.992L407.737 55.9329V49.267H408.674V57.0003H407.345L404.6 50.3344V57.0003H403.663Z" fill="white" class="jsx-78134b6655d3cf17"></path><path d="M412.819 57.1745C412.275 57.1745 411.792 57.062 411.371 56.8369C410.949 56.6118 410.612 56.3032 410.358 55.9111C410.104 55.5117 409.955 55.0506 409.911 54.5278L410.891 54.4625C410.942 54.8473 411.051 55.1741 411.218 55.4427C411.392 55.7114 411.614 55.9147 411.883 56.0527C412.158 56.1906 412.478 56.2596 412.841 56.2596C413.204 56.2596 413.509 56.216 413.756 56.1289C414.003 56.0345 414.188 55.9002 414.311 55.7259C414.442 55.5444 414.507 55.3302 414.507 55.0833C414.507 54.8364 414.449 54.6222 414.333 54.4407C414.224 54.2519 414.014 54.0776 413.701 53.9179C413.397 53.7581 412.943 53.5947 412.34 53.4277C411.803 53.2752 411.367 53.1082 411.033 52.9267C410.706 52.7452 410.467 52.5237 410.314 52.2623C410.169 52.0009 410.096 51.6778 410.096 51.2929C410.096 50.8573 410.198 50.476 410.401 50.1493C410.612 49.8153 410.91 49.5575 411.294 49.376C411.679 49.1872 412.137 49.0928 412.667 49.0928C413.197 49.0928 413.651 49.2017 414.028 49.4195C414.406 49.6301 414.704 49.9206 414.921 50.2909C415.146 50.6612 415.288 51.0824 415.346 51.5543L414.366 51.6197C414.322 51.3075 414.232 51.0315 414.094 50.7919C413.956 50.545 413.767 50.3526 413.527 50.2146C413.288 50.0767 412.994 50.0077 412.645 50.0077C412.166 50.0077 411.785 50.1239 411.501 50.3562C411.218 50.5813 411.077 50.879 411.077 51.2494C411.077 51.489 411.127 51.6887 411.229 51.8484C411.338 52.0009 411.527 52.1389 411.795 52.2623C412.064 52.3785 412.442 52.5056 412.928 52.6435C413.56 52.8178 414.061 53.0138 414.431 53.2317C414.809 53.4495 415.077 53.7109 415.237 54.0159C415.404 54.3136 415.488 54.6767 415.488 55.1051C415.488 55.5117 415.375 55.8711 415.15 56.1834C414.925 56.4956 414.613 56.7389 414.213 56.9131C413.814 57.0874 413.349 57.1745 412.819 57.1745Z" fill="white" class="jsx-78134b6655d3cf17"></path></g><g id="details" class="jsx-78134b6655d3cf17"><g id="Group 223" opacity="0.5" class="jsx-78134b6655d3cf17"><g id="Rectangle 1774" filter="url(#filter10_di_365_3087)" class="jsx-78134b6655d3cf17"><rect x="98.7979" y="51.7988" width="35.1955" height="35.1955" rx="3.8256" fill="#232429" class="jsx-78134b6655d3cf17"></rect></g><rect id="Rectangle 1775" x="98.7979" y="43" width="1.53024" height="5.7384" rx="0.76512" fill="#232429" class="jsx-78134b6655d3cf17"></rect><rect id="Rectangle 1776" x="101.477" y="43" width="1.53024" height="5.7384" rx="0.76512" fill="#232429" class="jsx-78134b6655d3cf17"></rect><rect id="Rectangle 1777" x="104.537" y="43" width="1.53024" height="5.7384" rx="0.76512" fill="#232429" class="jsx-78134b6655d3cf17"></rect><rect id="Rectangle 1778" x="107.215" y="43" width="1.53024" height="5.7384" rx="0.76512" fill="#232429" class="jsx-78134b6655d3cf17"></rect><rect id="Rectangle 1779" x="109.893" y="43" width="1.53024" height="5.7384" rx="0.76512" fill="#232429" class="jsx-78134b6655d3cf17"></rect><rect id="Rectangle 1780" x="112.954" y="43" width="1.53024" height="5.7384" rx="0.76512" fill="#232429" class="jsx-78134b6655d3cf17"></rect><rect id="Rectangle 1781" x="115.632" y="43" width="1.53024" height="5.7384" rx="0.76512" fill="#232429" class="jsx-78134b6655d3cf17"></rect><rect id="Rectangle 1782" x="118.309" y="43" width="1.53024" height="5.7384" rx="0.76512" fill="#232429" class="jsx-78134b6655d3cf17"></rect><rect id="Rectangle 1783" x="121.37" y="43" width="1.53024" height="5.7384" rx="0.76512" fill="#232429" class="jsx-78134b6655d3cf17"></rect><rect id="Rectangle 1784" x="124.048" y="43" width="1.53024" height="5.7384" rx="0.76512" fill="#232429" class="jsx-78134b6655d3cf17"></rect><rect id="Rectangle 1785" x="126.726" y="43" width="1.53024" height="5.7384" rx="0.76512" fill="#232429" class="jsx-78134b6655d3cf17"></rect><rect id="Rectangle 1786" x="129.403" y="43" width="1.9128" height="5.7384" rx="0.956399" fill="#232429" class="jsx-78134b6655d3cf17"></rect><rect id="Rectangle 1787" x="132.465" y="43" width="1.53024" height="5.7384" rx="0.76512" fill="#232429" class="jsx-78134b6655d3cf17"></rect><rect id="Rectangle 1801" x="98.7979" y="90.0547" width="1.53024" height="5.7384" rx="0.76512" fill="#232429" class="jsx-78134b6655d3cf17"></rect><rect id="Rectangle 1802" x="101.477" y="90.0547" width="1.53024" height="5.7384" rx="0.76512" fill="#232429" class="jsx-78134b6655d3cf17"></rect><rect id="Rectangle 1803" x="104.537" y="90.0557" width="1.53024" height="5.7384" rx="0.76512" fill="#232429" class="jsx-78134b6655d3cf17"></rect><rect id="Rectangle 1804" x="107.215" y="90.0547" width="1.53024" height="5.7384" rx="0.76512" fill="#232429" class="jsx-78134b6655d3cf17"></rect><rect id="Rectangle 1805" x="109.893" y="90.0557" width="1.53024" height="5.7384" rx="0.76512" fill="#232429" class="jsx-78134b6655d3cf17"></rect><rect id="Rectangle 1806" x="112.954" y="90.0557" width="1.53024" height="5.7384" rx="0.76512" fill="#232429" class="jsx-78134b6655d3cf17"></rect><rect id="Rectangle 1807" x="115.632" y="90.0547" width="1.53024" height="5.7384" rx="0.76512" fill="#232429" class="jsx-78134b6655d3cf17"></rect><rect id="Rectangle 1808" x="118.309" y="90.0557" width="1.53024" height="5.7384" rx="0.76512" fill="#232429" class="jsx-78134b6655d3cf17"></rect><rect id="Rectangle 1809" x="121.37" y="90.0547" width="1.53024" height="5.7384" rx="0.76512" fill="#232429" class="jsx-78134b6655d3cf17"></rect><rect id="Rectangle 1810" x="124.048" y="90.0557" width="1.53024" height="5.7384" rx="0.76512" fill="#232429" class="jsx-78134b6655d3cf17"></rect><rect id="Rectangle 1811" x="126.726" y="90.0547" width="1.53024" height="5.7384" rx="0.76512" fill="#232429" class="jsx-78134b6655d3cf17"></rect><rect id="Rectangle 1812" x="129.403" y="90.0557" width="1.9128" height="5.7384" rx="0.956399" fill="#232429" class="jsx-78134b6655d3cf17"></rect><rect id="Rectangle 1813" x="132.465" y="90.0557" width="1.53024" height="5.7384" rx="0.76512" fill="#232429" class="jsx-78134b6655d3cf17"></rect><rect id="Rectangle 1788" x="137.055" y="86.9941" width="1.53024" height="5.7384" rx="0.76512" transform="rotate(-90 137.055 86.9941)" fill="#232429" class="jsx-78134b6655d3cf17"></rect><rect id="Rectangle 1789" x="137.055" y="84.3164" width="1.53024" height="5.7384" rx="0.76512" transform="rotate(-90 137.055 84.3164)" fill="#232429" class="jsx-78134b6655d3cf17"></rect><rect id="Rectangle 1790" x="137.055" y="81.2559" width="1.53024" height="5.7384" rx="0.76512" transform="rotate(-90 137.055 81.2559)" fill="#232429" class="jsx-78134b6655d3cf17"></rect><rect id="Rectangle 1791" x="137.055" y="78.5771" width="1.53024" height="5.7384" rx="0.76512" transform="rotate(-90 137.055 78.5771)" fill="#232429" class="jsx-78134b6655d3cf17"></rect><rect id="Rectangle 1792" x="137.055" y="75.8994" width="1.53024" height="5.7384" rx="0.76512" transform="rotate(-90 137.055 75.8994)" fill="#232429" class="jsx-78134b6655d3cf17"></rect><rect id="Rectangle 1793" x="137.055" y="72.8398" width="1.53024" height="5.7384" rx="0.76512" transform="rotate(-90 137.055 72.8398)" fill="#232429" class="jsx-78134b6655d3cf17"></rect><rect id="Rectangle 1794" x="137.055" y="70.1621" width="1.53024" height="5.7384" rx="0.76512" transform="rotate(-90 137.055 70.1621)" fill="#232429" class="jsx-78134b6655d3cf17"></rect><rect id="Rectangle 1795" x="137.055" y="67.4844" width="1.53024" height="5.7384" rx="0.76512" transform="rotate(-90 137.055 67.4844)" fill="#232429" class="jsx-78134b6655d3cf17"></rect><rect id="Rectangle 1796" x="137.055" y="64.4229" width="1.53024" height="5.7384" rx="0.76512" transform="rotate(-90 137.055 64.4229)" fill="#232429" class="jsx-78134b6655d3cf17"></rect><rect id="Rectangle 1797" x="137.055" y="61.7451" width="1.53024" height="5.7384" rx="0.76512" transform="rotate(-90 137.055 61.7451)" fill="#232429" class="jsx-78134b6655d3cf17"></rect><rect id="Rectangle 1798" x="137.055" y="59.0674" width="1.53024" height="5.7384" rx="0.76512" transform="rotate(-90 137.055 59.0674)" fill="#232429" class="jsx-78134b6655d3cf17"></rect><rect id="Rectangle 1799" x="137.055" y="56.3896" width="1.9128" height="5.7384" rx="0.956399" transform="rotate(-90 137.055 56.3896)" fill="#232429" class="jsx-78134b6655d3cf17"></rect><rect id="Rectangle 1800" x="137.055" y="53.3291" width="1.53024" height="5.7384" rx="0.76512" transform="rotate(-90 137.055 53.3291)" fill="#232429" class="jsx-78134b6655d3cf17"></rect><rect id="Rectangle 1818" x="90" y="75.8994" width="1.53024" height="5.7384" rx="0.76512" transform="rotate(-90 90 75.8994)" fill="#232429" class="jsx-78134b6655d3cf17"></rect><rect id="Rectangle 1814" x="90" y="86.9941" width="1.53024" height="5.7384" rx="0.76512" transform="rotate(-90 90 86.9941)" fill="#232429" class="jsx-78134b6655d3cf17"></rect><rect id="Rectangle 1815" x="90" y="84.3164" width="1.53024" height="5.7384" rx="0.76512" transform="rotate(-90 90 84.3164)" fill="#232429" class="jsx-78134b6655d3cf17"></rect><rect id="Rectangle 1816" x="90" y="81.2559" width="1.53024" height="5.7384" rx="0.76512" transform="rotate(-90 90 81.2559)" fill="#232429" class="jsx-78134b6655d3cf17"></rect><rect id="Rectangle 1817" x="90" y="78.5771" width="1.53024" height="5.7384" rx="0.76512" transform="rotate(-90 90 78.5771)" fill="#232429" class="jsx-78134b6655d3cf17"></rect><rect id="Rectangle 1819" x="90" y="72.8398" width="1.53024" height="5.7384" rx="0.76512" transform="rotate(-90 90 72.8398)" fill="#232429" class="jsx-78134b6655d3cf17"></rect><rect id="Rectangle 1820" x="90" y="70.1621" width="1.53024" height="5.7384" rx="0.76512" transform="rotate(-90 90 70.1621)" fill="#232429" class="jsx-78134b6655d3cf17"></rect><rect id="Rectangle 1821" x="90" y="67.4844" width="1.53024" height="5.7384" rx="0.76512" transform="rotate(-90 90 67.4844)" fill="#232429" class="jsx-78134b6655d3cf17"></rect><rect id="Rectangle 1822" x="90" y="64.4229" width="1.53024" height="5.7384" rx="0.76512" transform="rotate(-90 90 64.4229)" fill="#232429" class="jsx-78134b6655d3cf17"></rect><rect id="Rectangle 1823" x="90" y="61.7451" width="1.53024" height="5.7384" rx="0.76512" transform="rotate(-90 90 61.7451)" fill="#232429" class="jsx-78134b6655d3cf17"></rect><rect id="Rectangle 1824" x="90" y="59.0674" width="1.53024" height="5.7384" rx="0.76512" transform="rotate(-90 90 59.0674)" fill="#232429" class="jsx-78134b6655d3cf17"></rect><rect id="Rectangle 1825" x="90" y="56.3896" width="1.9128" height="5.7384" rx="0.956399" transform="rotate(-90 90 56.3896)" fill="#232429" class="jsx-78134b6655d3cf17"></rect><rect id="Rectangle 1826" x="90" y="53.3291" width="1.53024" height="5.7384" rx="0.76512" transform="rotate(-90 90 53.3291)" fill="#232429" class="jsx-78134b6655d3cf17"></rect></g><g id="Group 236" opacity="0.4" class="jsx-78134b6655d3cf17"><g id="Group 228" class="jsx-78134b6655d3cf17"><path id="Vector" d="M119.197 120.624V159.394M142.293 120.624V159.394M165.391 120.624V159.394M97.75 120.624V159.394" stroke="url(#paint3_linear_365_3087)" stroke-width="1.64979" class="jsx-78134b6655d3cf17"></path><path id="Vector_2" d="M122.496 162.694C122.496 164.516 121.019 165.994 119.197 165.994C117.374 165.994 115.897 164.516 115.897 162.694C115.897 160.872 117.374 159.394 119.197 159.394C121.019 159.394 122.496 160.872 122.496 162.694ZM145.593 162.694C145.593 164.516 144.116 165.994 142.293 165.994C140.471 165.994 138.994 164.516 138.994 162.694C138.994 160.872 140.471 159.394 142.293 159.394C144.116 159.394 145.593 160.872 145.593 162.694ZM168.69 162.694C168.69 164.516 167.213 165.993 165.39 165.993C163.568 165.993 162.091 164.516 162.091 162.694C162.091 160.872 163.568 159.394 165.39 159.394C167.213 159.394 168.69 160.872 168.69 162.694ZM101.05 162.694C101.05 164.516 99.5728 165.994 97.7504 165.994C95.9281 165.994 94.4509 164.516 94.4509 162.694C94.4509 160.872 95.9281 159.394 97.7504 159.394C99.5728 159.394 101.05 160.872 101.05 162.694Z" fill="#040407" stroke="#393B40" stroke-width="1.64979" class="jsx-78134b6655d3cf17"></path></g><g id="Frame 224" class="jsx-78134b6655d3cf17"><g id="Vector_3" filter="url(#filter11_di_365_3087)" class="jsx-78134b6655d3cf17"><path d="M104.848 126.399C104.848 130.499 101.524 133.823 97.4241 133.823C93.3239 133.823 90 130.499 90 126.399C90 122.299 93.3239 118.975 97.4241 118.975C101.524 118.975 104.848 122.299 104.848 126.399Z" fill="#232429" class="jsx-78134b6655d3cf17"></path><path d="M127.235 126.399C127.235 130.499 123.912 133.823 119.811 133.823C115.711 133.823 112.387 130.499 112.387 126.399C112.387 122.298 115.711 118.975 119.811 118.975C123.912 118.975 127.235 122.298 127.235 126.399Z" fill="#232429" class="jsx-78134b6655d3cf17"></path><path d="M149.622 126.399C149.622 130.499 146.298 133.823 142.198 133.823C138.098 133.823 134.774 130.499 134.774 126.399C134.774 122.299 138.098 118.975 142.198 118.975C146.298 118.975 149.622 122.299 149.622 126.399Z" fill="#232429" class="jsx-78134b6655d3cf17"></path><path d="M172.009 126.399C172.009 130.499 168.685 133.823 164.585 133.823C160.485 133.823 157.161 130.499 157.161 126.399C157.161 122.299 160.485 118.975 164.585 118.975C168.685 118.975 172.009 122.299 172.009 126.399Z" fill="#232429" class="jsx-78134b6655d3cf17"></path></g></g></g><path id="Vector 33" d="M213 259V105.406L252.486 70H416V259H213Z" stroke="#26272B" class="jsx-78134b6655d3cf17"></path><g id="01" opacity="0.6" class="jsx-78134b6655d3cf17"><path d="M83.3074 188.889L86.3571 183.334L87.2284 183.378L84.1787 188.933L83.3074 188.889ZM85.2679 190.175C84.7088 190.175 84.2223 190.011 83.8084 189.684C83.4017 189.358 83.0895 188.893 82.8717 188.29C82.6538 187.688 82.5449 186.972 82.5449 186.145C82.5449 185.31 82.6538 184.591 82.8717 183.988C83.0895 183.385 83.4017 182.921 83.8084 182.594C84.2223 182.26 84.7088 182.093 85.2679 182.093C85.8343 182.093 86.3208 182.26 86.7274 182.594C87.134 182.921 87.4463 183.385 87.6641 183.988C87.8819 184.591 87.9908 185.31 87.9908 186.145C87.9908 186.972 87.8819 187.688 87.6641 188.29C87.4463 188.893 87.134 189.358 86.7274 189.684C86.3208 190.011 85.8343 190.175 85.2679 190.175ZM85.2679 189.26C85.6309 189.26 85.9395 189.133 86.1937 188.878C86.4551 188.624 86.6548 188.265 86.7927 187.8C86.938 187.328 87.0106 186.776 87.0106 186.145C87.0106 185.498 86.938 184.943 86.7927 184.478C86.6548 184.006 86.4551 183.643 86.1937 183.389C85.9395 183.135 85.6309 183.008 85.2679 183.008C84.9121 183.008 84.6035 183.135 84.3421 183.389C84.0807 183.643 83.8774 184.006 83.7321 184.478C83.5942 184.943 83.5252 185.498 83.5252 186.145C83.5252 186.776 83.5942 187.328 83.7321 187.8C83.8774 188.265 84.0807 188.624 84.3421 188.878C84.6035 189.133 84.9121 189.26 85.2679 189.26Z" fill="white" class="jsx-78134b6655d3cf17"></path><path d="M91.6245 190V184.271H89.5986V183.465H90.6442C90.9201 183.465 91.1416 183.425 91.3086 183.345C91.4829 183.265 91.6063 183.138 91.6789 182.964C91.7588 182.79 91.7987 182.557 91.7987 182.267H92.5612V190H91.6245ZM89.1847 190V189.085H94.4128V190H89.1847Z" fill="white" class="jsx-78134b6655d3cf17"></path></g><g id="SA-FF" opacity="0.3" class="jsx-78134b6655d3cf17"><path d="M85.3876 32.1745C84.843 32.1745 84.3602 32.062 83.939 31.8369C83.5178 31.6118 83.1802 31.3032 82.9261 30.9111C82.6719 30.5117 82.5231 30.0506 82.4795 29.5278L83.4598 29.4625C83.5106 29.8473 83.6195 30.1741 83.7865 30.4427C83.9608 30.7114 84.1823 30.9147 84.4509 31.0527C84.7268 31.1906 85.0463 31.2596 85.4094 31.2596C85.7725 31.2596 86.0774 31.216 86.3243 31.1289C86.5712 31.0345 86.7564 30.9002 86.8798 30.7259C87.0105 30.5444 87.0759 30.3302 87.0759 30.0833C87.0759 29.8364 87.0178 29.6222 86.9016 29.4407C86.7927 29.2519 86.5821 29.0776 86.2699 28.9179C85.9649 28.7581 85.5111 28.5947 84.9084 28.4277C84.371 28.2752 83.9354 28.1082 83.6014 27.9267C83.2746 27.7452 83.035 27.5237 82.8825 27.2623C82.7373 27.0009 82.6647 26.6778 82.6647 26.2929C82.6647 25.8573 82.7663 25.476 82.9696 25.1493C83.1802 24.8153 83.4779 24.5575 83.8628 24.376C84.2476 24.1872 84.7051 24.0928 85.2351 24.0928C85.7652 24.0928 86.219 24.2017 86.5966 24.4195C86.9742 24.6301 87.2719 24.9206 87.4897 25.2909C87.7148 25.6612 87.8564 26.0824 87.9145 26.5543L86.9343 26.6197C86.8907 26.3075 86.7999 26.0315 86.662 25.7919C86.524 25.545 86.3352 25.3526 86.0956 25.2146C85.856 25.0767 85.5619 25.0077 85.2133 25.0077C84.7341 25.0077 84.3529 25.1239 84.0697 25.3562C83.7865 25.5813 83.6449 25.879 83.6449 26.2494C83.6449 26.489 83.6957 26.6887 83.7974 26.8484C83.9063 27.0009 84.0951 27.1389 84.3638 27.2623C84.6324 27.3785 85.01 27.5056 85.4965 27.6435C86.1283 27.8178 86.6293 28.0138 86.9996 28.2317C87.3772 28.4495 87.6459 28.7109 87.8056 29.0159C87.9726 29.3136 88.0561 29.6767 88.0561 30.1051C88.0561 30.5117 87.9436 30.8711 87.7185 31.1834C87.4934 31.4956 87.1811 31.7389 86.7818 31.9131C86.3824 32.0874 85.9177 32.1745 85.3876 32.1745Z" fill="white" class="jsx-78134b6655d3cf17"></path><path d="M88.8143 32.0003L91.1669 24.267H92.4304L94.783 32.0003H93.781L91.7987 25.1166L89.8163 32.0003H88.8143ZM90.0015 29.8001L90.3283 28.8852H93.2691L93.5958 29.8001H90.0015Z" fill="white" class="jsx-78134b6655d3cf17"></path><path d="M96.5868 29.2555V28.3951H100.072V29.2555H96.5868Z" fill="white" class="jsx-78134b6655d3cf17"></path><path d="M102.682 32.0003V24.267H107.474V25.1602H103.139L103.619 24.7027V28.2535L103.139 27.7742H107.278V28.6674H103.139L103.619 28.1881V32.0003H102.682Z" fill="white" class="jsx-78134b6655d3cf17"></path><path d="M109.213 32.0003V24.267H114.005V25.1602H109.67L110.15 24.7027V28.2535L109.67 27.7742H113.809V28.6674H109.67L110.15 28.1881V32.0003H109.213Z" fill="white" class="jsx-78134b6655d3cf17"></path></g><path id="Rectangle 7027" opacity="0.1" d="M82.5 112.5H179.5V175.5H82.5V112.5Z" stroke="white" class="jsx-78134b6655d3cf17"></path><rect id="Rectangle 7028" opacity="0.1" x="82.5" y="38.5" width="67" height="63" stroke="white" class="jsx-78134b6655d3cf17"></rect><path id="Vector_4" d="M153.5 73L161 80.5V107M155 53L171.5 69.5V106" stroke="white" stroke-opacity="0.06" class="jsx-78134b6655d3cf17"></path><path id="Vector 38" d="M187.5 131H204M187.5 142.5H204M187.5 153.5H204" stroke="white" stroke-opacity="0.06" class="jsx-78134b6655d3cf17"></path></g></g></g><defs class="jsx-78134b6655d3cf17"><filter id="filter0_f_365_3087" x="337.7" y="99.7" width="54.6" height="90.6" filterUnits="userSpaceOnUse" color-interpolation-filters="sRGB" class="jsx-78134b6655d3cf17"><feFlood flood-opacity="0" result="BackgroundImageFix" class="jsx-78134b6655d3cf17"></feFlood><feBlend mode="normal" in="SourceGraphic" in2="BackgroundImageFix" result="shape" class="jsx-78134b6655d3cf17"></feBlend><feGaussianBlur stdDeviation="9.15" result="effect1_foregroundBlur_365_3087" class="jsx-78134b6655d3cf17"></feGaussianBlur></filter><filter id="filter1_f_365_3087" x="237.7" y="119.7" width="54.6" height="90.6" filterUnits="userSpaceOnUse" color-interpolation-filters="sRGB" class="jsx-78134b6655d3cf17"><feFlood flood-opacity="0" result="BackgroundImageFix" class="jsx-78134b6655d3cf17"></feFlood><feBlend mode="normal" in="SourceGraphic" in2="BackgroundImageFix" result="shape" class="jsx-78134b6655d3cf17"></feBlend><feGaussianBlur stdDeviation="9.15" result="effect1_foregroundBlur_365_3087" class="jsx-78134b6655d3cf17"></feGaussianBlur></filter><filter id="filter2_dii_365_3087" x="252.769" y="112.029" width="119.597" height="119.597" filterUnits="userSpaceOnUse" color-interpolation-filters="sRGB" class="jsx-78134b6655d3cf17"><feFlood flood-opacity="0" result="BackgroundImageFix" class="jsx-78134b6655d3cf17"></feFlood><feColorMatrix in="SourceAlpha" type="matrix" values="0 0 0 0 0 0 0 0 0 0 0 0 0 0 0 0 0 0 127 0" result="hardAlpha" class="jsx-78134b6655d3cf17"></feColorMatrix><feOffset dy="3.15612" class="jsx-78134b6655d3cf17"></feOffset><feGaussianBlur stdDeviation="1.57806" class="jsx-78134b6655d3cf17"></feGaussianBlur><feComposite in2="hardAlpha" operator="out" class="jsx-78134b6655d3cf17"></feComposite><feColorMatrix type="matrix" values="0 0 0 0 0 0 0 0 0 0 0 0 0 0 0 0 0 0 1 0" class="jsx-78134b6655d3cf17"></feColorMatrix><feBlend mode="normal" in2="BackgroundImageFix" result="effect1_dropShadow_365_3087" class="jsx-78134b6655d3cf17"></feBlend><feBlend mode="normal" in="SourceGraphic" in2="effect1_dropShadow_365_3087" result="shape" class="jsx-78134b6655d3cf17"></feBlend><feColorMatrix in="SourceAlpha" type="matrix" values="0 0 0 0 0 0 0 0 0 0 0 0 0 0 0 0 0 0 127 0" result="hardAlpha" class="jsx-78134b6655d3cf17"></feColorMatrix><feOffset dy="0.78903" class="jsx-78134b6655d3cf17"></feOffset><feComposite in2="hardAlpha" operator="arithmetic" k2="-1" k3="1" class="jsx-78134b6655d3cf17"></feComposite><feColorMatrix type="matrix" values="0 0 0 0 1 0 0 0 0 1 0 0 0 0 1 0 0 0 0.25 0" class="jsx-78134b6655d3cf17"></feColorMatrix><feBlend mode="normal" in2="shape" result="effect2_innerShadow_365_3087" class="jsx-78134b6655d3cf17"></feBlend><feColorMatrix in="SourceAlpha" type="matrix" values="0 0 0 0 0 0 0 0 0 0 0 0 0 0 0 0 0 0 127 0" result="hardAlpha" class="jsx-78134b6655d3cf17"></feColorMatrix><feOffset dy="1" class="jsx-78134b6655d3cf17"></feOffset><feGaussianBlur stdDeviation="1.6" class="jsx-78134b6655d3cf17"></feGaussianBlur><feComposite in2="hardAlpha" operator="arithmetic" k2="-1" k3="1" class="jsx-78134b6655d3cf17"></feComposite><feColorMatrix type="matrix" values="0 0 0 0 1 0 0 0 0 1 0 0 0 0 1 0 0 0 0.25 0" class="jsx-78134b6655d3cf17"></feColorMatrix><feBlend mode="normal" in2="effect2_innerShadow_365_3087" result="effect3_innerShadow_365_3087" class="jsx-78134b6655d3cf17"></feBlend></filter><filter id="filter3_d_365_3087" x="338.345" y="122.169" width="21.0293" height="25.7944" filterUnits="userSpaceOnUse" color-interpolation-filters="sRGB" class="jsx-78134b6655d3cf17"><feFlood flood-opacity="0" result="BackgroundImageFix" class="jsx-78134b6655d3cf17"></feFlood><feColorMatrix in="SourceAlpha" type="matrix" values="0 0 0 0 0 0 0 0 0 0 0 0 0 0 0 0 0 0 127 0" result="hardAlpha" class="jsx-78134b6655d3cf17"></feColorMatrix><feOffset dy="1.13524" class="jsx-78134b6655d3cf17"></feOffset><feComposite in2="hardAlpha" operator="out" class="jsx-78134b6655d3cf17"></feComposite><feColorMatrix type="matrix" values="0 0 0 0 0 0 0 0 0 0 0 0 0 0 0 0 0 0 1 0" class="jsx-78134b6655d3cf17"></feColorMatrix><feBlend mode="normal" in2="BackgroundImageFix" result="effect1_dropShadow_365_3087" class="jsx-78134b6655d3cf17"></feBlend><feBlend mode="normal" in="SourceGraphic" in2="effect1_dropShadow_365_3087" result="shape" class="jsx-78134b6655d3cf17"></feBlend></filter><filter id="filter4_f_365_3087" x="335.485" y="119.309" width="26.7489" height="30.3788" filterUnits="userSpaceOnUse" color-interpolation-filters="sRGB" class="jsx-78134b6655d3cf17"><feFlood flood-opacity="0" result="BackgroundImageFix" class="jsx-78134b6655d3cf17"></feFlood><feBlend mode="normal" in="SourceGraphic" in2="BackgroundImageFix" result="shape" class="jsx-78134b6655d3cf17"></feBlend><feGaussianBlur stdDeviation="1.92991" result="effect1_foregroundBlur_365_3087" class="jsx-78134b6655d3cf17"></feGaussianBlur></filter><filter id="filter5_d_365_3087" x="259.225" y="83.9824" width="104.857" height="19.4707" filterUnits="userSpaceOnUse" color-interpolation-filters="sRGB" class="jsx-78134b6655d3cf17"><feFlood flood-opacity="0" result="BackgroundImageFix" class="jsx-78134b6655d3cf17"></feFlood><feColorMatrix in="SourceAlpha" type="matrix" values="0 0 0 0 0 0 0 0 0 0 0 0 0 0 0 0 0 0 127 0" result="hardAlpha" class="jsx-78134b6655d3cf17"></feColorMatrix><feOffset dy="1" class="jsx-78134b6655d3cf17"></feOffset><feComposite in2="hardAlpha" operator="out" class="jsx-78134b6655d3cf17"></feComposite><feColorMatrix type="matrix" values="0 0 0 0 0 0 0 0 0 0 0 0 0 0 0 0 0 0 1 0" class="jsx-78134b6655d3cf17"></feColorMatrix><feBlend mode="normal" in2="BackgroundImageFix" result="effect1_dropShadow_365_3087" class="jsx-78134b6655d3cf17"></feBlend><feBlend mode="normal" in="SourceGraphic" in2="effect1_dropShadow_365_3087" result="shape" class="jsx-78134b6655d3cf17"></feBlend></filter><filter id="filter6_d_365_3087" x="379.337" y="115.328" width="18.4707" height="105.857" filterUnits="userSpaceOnUse" color-interpolation-filters="sRGB" class="jsx-78134b6655d3cf17"><feFlood flood-opacity="0" result="BackgroundImageFix" class="jsx-78134b6655d3cf17"></feFlood><feColorMatrix in="SourceAlpha" type="matrix" values="0 0 0 0 0 0 0 0 0 0 0 0 0 0 0 0 0 0 127 0" result="hardAlpha" class="jsx-78134b6655d3cf17"></feColorMatrix><feOffset dy="1" class="jsx-78134b6655d3cf17"></feOffset><feComposite in2="hardAlpha" operator="out" class="jsx-78134b6655d3cf17"></feComposite><feColorMatrix type="matrix" values="0 0 0 0 0 0 0 0 0 0 0 0 0 0 0 0 0 0 1 0" class="jsx-78134b6655d3cf17"></feColorMatrix><feBlend mode="normal" in2="BackgroundImageFix" result="effect1_dropShadow_365_3087" class="jsx-78134b6655d3cf17"></feBlend><feBlend mode="normal" in="SourceGraphic" in2="effect1_dropShadow_365_3087" result="shape" class="jsx-78134b6655d3cf17"></feBlend></filter><filter id="filter7_d_365_3087" x="227.879" y="115.328" width="18.4707" height="105.857" filterUnits="userSpaceOnUse" color-interpolation-filters="sRGB" class="jsx-78134b6655d3cf17"><feFlood flood-opacity="0" result="BackgroundImageFix" class="jsx-78134b6655d3cf17"></feFlood><feColorMatrix in="SourceAlpha" type="matrix" values="0 0 0 0 0 0 0 0 0 0 0 0 0 0 0 0 0 0 127 0" result="hardAlpha" class="jsx-78134b6655d3cf17"></feColorMatrix><feOffset dy="1" class="jsx-78134b6655d3cf17"></feOffset><feComposite in2="hardAlpha" operator="out" class="jsx-78134b6655d3cf17"></feComposite><feColorMatrix type="matrix" values="0 0 0 0 0 0 0 0 0 0 0 0 0 0 0 0 0 0 1 0" class="jsx-78134b6655d3cf17"></feColorMatrix><feBlend mode="normal" in2="BackgroundImageFix" result="effect1_dropShadow_365_3087" class="jsx-78134b6655d3cf17"></feBlend><feBlend mode="normal" in="SourceGraphic" in2="effect1_dropShadow_365_3087" result="shape" class="jsx-78134b6655d3cf17"></feBlend></filter><filter id="filter8_f_365_3087" x="234.7" y="123.7" width="54.6" height="80.6" filterUnits="userSpaceOnUse" color-interpolation-filters="sRGB" class="jsx-78134b6655d3cf17"><feFlood flood-opacity="0" result="BackgroundImageFix" class="jsx-78134b6655d3cf17"></feFlood><feBlend mode="normal" in="SourceGraphic" in2="BackgroundImageFix" result="shape" class="jsx-78134b6655d3cf17"></feBlend><feGaussianBlur stdDeviation="10.15" result="effect1_foregroundBlur_365_3087" class="jsx-78134b6655d3cf17"></feGaussianBlur></filter><filter id="filter9_f_365_3087" x="335.5" y="119.5" width="61" height="87" filterUnits="userSpaceOnUse" color-interpolation-filters="sRGB" class="jsx-78134b6655d3cf17"><feFlood flood-opacity="0" result="BackgroundImageFix" class="jsx-78134b6655d3cf17"></feFlood><feBlend mode="normal" in="SourceGraphic" in2="BackgroundImageFix" result="shape" class="jsx-78134b6655d3cf17"></feBlend><feGaussianBlur stdDeviation="11.75" result="effect1_foregroundBlur_365_3087" class="jsx-78134b6655d3cf17"></feGaussianBlur></filter><filter id="filter10_di_365_3087" x="97.2676" y="51.7988" width="38.2558" height="38.2558" filterUnits="userSpaceOnUse" color-interpolation-filters="sRGB" class="jsx-78134b6655d3cf17"><feFlood flood-opacity="0" result="BackgroundImageFix" class="jsx-78134b6655d3cf17"></feFlood><feColorMatrix in="SourceAlpha" type="matrix" values="0 0 0 0 0 0 0 0 0 0 0 0 0 0 0 0 0 0 127 0" result="hardAlpha" class="jsx-78134b6655d3cf17"></feColorMatrix><feOffset dy="1.53024" class="jsx-78134b6655d3cf17"></feOffset><feGaussianBlur stdDeviation="0.765119" class="jsx-78134b6655d3cf17"></feGaussianBlur><feComposite in2="hardAlpha" operator="out" class="jsx-78134b6655d3cf17"></feComposite><feColorMatrix type="matrix" values="0 0 0 0 0 0 0 0 0 0 0 0 0 0 0 0 0 0 1 0" class="jsx-78134b6655d3cf17"></feColorMatrix><feBlend mode="normal" in2="BackgroundImageFix" result="effect1_dropShadow_365_3087" class="jsx-78134b6655d3cf17"></feBlend><feBlend mode="normal" in="SourceGraphic" in2="effect1_dropShadow_365_3087" result="shape" class="jsx-78134b6655d3cf17"></feBlend><feColorMatrix in="SourceAlpha" type="matrix" values="0 0 0 0 0 0 0 0 0 0 0 0 0 0 0 0 0 0 127 0" result="hardAlpha" class="jsx-78134b6655d3cf17"></feColorMatrix><feOffset dy="0.38256" class="jsx-78134b6655d3cf17"></feOffset><feComposite in2="hardAlpha" operator="arithmetic" k2="-1" k3="1" class="jsx-78134b6655d3cf17"></feComposite><feColorMatrix type="matrix" values="0 0 0 0 1 0 0 0 0 1 0 0 0 0 1 0 0 0 0.25 0" class="jsx-78134b6655d3cf17"></feColorMatrix><feBlend mode="normal" in2="shape" result="effect2_innerShadow_365_3087" class="jsx-78134b6655d3cf17"></feBlend></filter><filter id="filter11_di_365_3087" x="86.5063" y="118.975" width="88.9971" height="21.836" filterUnits="userSpaceOnUse" color-interpolation-filters="sRGB" class="jsx-78134b6655d3cf17"><feFlood flood-opacity="0" result="BackgroundImageFix" class="jsx-78134b6655d3cf17"></feFlood><feColorMatrix in="SourceAlpha" type="matrix" values="0 0 0 0 0 0 0 0 0 0 0 0 0 0 0 0 0 0 127 0" result="hardAlpha" class="jsx-78134b6655d3cf17"></feColorMatrix><feOffset dy="3.49367" class="jsx-78134b6655d3cf17"></feOffset><feGaussianBlur stdDeviation="1.74684" class="jsx-78134b6655d3cf17"></feGaussianBlur><feComposite in2="hardAlpha" operator="out" class="jsx-78134b6655d3cf17"></feComposite><feColorMatrix type="matrix" values="0 0 0 0 0 0 0 0 0 0 0 0 0 0 0 0 0 0 1 0" class="jsx-78134b6655d3cf17"></feColorMatrix><feBlend mode="normal" in2="BackgroundImageFix" result="effect1_dropShadow_365_3087" class="jsx-78134b6655d3cf17"></feBlend><feBlend mode="normal" in="SourceGraphic" in2="effect1_dropShadow_365_3087" result="shape" class="jsx-78134b6655d3cf17"></feBlend><feColorMatrix in="SourceAlpha" type="matrix" values="0 0 0 0 0 0 0 0 0 0 0 0 0 0 0 0 0 0 127 0" result="hardAlpha" class="jsx-78134b6655d3cf17"></feColorMatrix><feOffset dy="0.873418" class="jsx-78134b6655d3cf17"></feOffset><feComposite in2="hardAlpha" operator="arithmetic" k2="-1" k3="1" class="jsx-78134b6655d3cf17"></feComposite><feColorMatrix type="matrix" values="0 0 0 0 1 0 0 0 0 1 0 0 0 0 1 0 0 0 0.25 0" class="jsx-78134b6655d3cf17"></feColorMatrix><feBlend mode="normal" in2="shape" result="effect2_innerShadow_365_3087" class="jsx-78134b6655d3cf17"></feBlend></filter><linearGradient id="paint0_linear_365_3087" x1="256.5" y1="125" x2="256.5" y2="217" gradientUnits="userSpaceOnUse" class="jsx-78134b6655d3cf17"><stop stop-color="#3C88F5" stop-opacity="0" class="jsx-78134b6655d3cf17"></stop><stop offset="0.125" stop-color="#3C88F5" class="jsx-78134b6655d3cf17"></stop><stop offset="0.45" stop-color="white" class="jsx-78134b6655d3cf17"></stop><stop offset="0.775" stop-color="#6B5DF7" class="jsx-78134b6655d3cf17"></stop><stop offset="1" stop-color="#6B5DF7" stop-opacity="0" class="jsx-78134b6655d3cf17"></stop></linearGradient><linearGradient id="paint1_linear_365_3087" x1="369.5" y1="125" x2="369.5" y2="187" gradientUnits="userSpaceOnUse" class="jsx-78134b6655d3cf17"><stop stop-color="#3C88F5" stop-opacity="0" class="jsx-78134b6655d3cf17"></stop><stop offset="0.125" stop-color="#3C88F5" class="jsx-78134b6655d3cf17"></stop><stop offset="0.45" stop-color="white" class="jsx-78134b6655d3cf17"></stop><stop offset="0.775" stop-color="#6B5DF7" class="jsx-78134b6655d3cf17"></stop><stop offset="1" stop-color="#6B5DF7" stop-opacity="0" class="jsx-78134b6655d3cf17"></stop></linearGradient><linearGradient id="paint2_linear_365_3087" x1="348.859" y1="123" x2="348.859" y2="146" gradientUnits="userSpaceOnUse" class="jsx-78134b6655d3cf17"><stop stop-color="white" class="jsx-78134b6655d3cf17"></stop><stop offset="1" stop-color="#999999" class="jsx-78134b6655d3cf17"></stop></linearGradient><linearGradient id="paint3_linear_365_3087" x1="98.25" y1="120.624" x2="98.25" y2="159.394" gradientUnits="userSpaceOnUse" class="jsx-78134b6655d3cf17"><stop class="jsx-78134b6655d3cf17"></stop><stop offset="1" stop-color="#666666" class="jsx-78134b6655d3cf17"></stop></linearGradient><clipPath id="clip0_365_3087" class="jsx-78134b6655d3cf17"><rect width="391" height="191" fill="white" transform="translate(53 10)" class="jsx-78134b6655d3cf17"></rect></clipPath></defs></svg>