<?xml version="1.0" encoding="UTF-8"?><svg id="Layer_1" xmlns="http://www.w3.org/2000/svg" viewBox="0 0 1000 1000"><defs><style>.cls-1{fill:#83c9e8;}.cls-2{fill:#4848d4;}</style></defs><rect class="cls-1" width="1000" height="1000"/><path class="cls-2" d="M537.64,754.74c-9.01-10.95-24.11-27.02-39.21-27.02s-30.07,17.04-38.1,27.02l-50.76,67.88c-16.15,21.6-.74,52.38,26.24,52.38h128.37c27.26,0,42.6-31.35,25.86-52.87l-52.41-67.39Z"/><path class="cls-2" d="M706.74,653.51c-14.11-1.37-36.15-2.05-46.83,8.62-10.68,10.68-9.21,33.31-7.84,46.05l12.11,83.89c3.85,26.7,36.52,37.56,55.59,18.49l90.77-90.77c19.28-19.28,7.95-52.29-19.1-55.68l-84.71-10.6Z"/><path class="cls-2" d="M754.74,462.36c-10.95,9.01-27.02,24.11-27.02,39.21s17.04,30.07,27.02,38.1l67.88,50.76c21.6,16.15,52.38.74,52.38-26.24v-128.37c0-27.26-31.35-42.6-52.87-25.86l-67.39,52.41Z"/><path class="cls-2" d="M653.51,293.26c-1.37,14.11-2.05,36.15,8.62,46.83s33.31,9.21,46.05,7.84l83.89-12.11c26.7-3.85,37.56-36.52,18.49-55.59l-90.77-90.77c-19.28-19.28-52.29-7.95-55.68,19.1l-10.6,84.71Z"/><path class="cls-2" d="M462.36,245.26c9.01,10.95,24.11,27.02,39.21,27.02,15.1,0,30.07-17.04,38.1-27.02l50.76-67.88c16.15-21.6.74-52.38-26.24-52.38h-128.37c-27.26,0-42.6,31.35-25.86,52.87l52.41,67.39Z"/><path class="cls-2" d="M293.26,346.49c14.11,1.37,36.15,2.05,46.83-8.62,10.68-10.68,9.21-33.31,7.84-46.05l-12.11-83.89c-3.85-26.7-36.52-37.56-55.59-18.49l-90.77,90.77c-19.28,19.28-7.95,52.29,19.1,55.68l84.71,10.6Z"/><path class="cls-2" d="M245.26,537.64c10.95-9.01,27.02-24.11,27.02-39.21,0-15.1-17.04-30.07-27.02-38.1l-67.88-50.76c-21.6-16.15-52.38-.74-52.38,26.24v128.37c0,27.26,31.35,42.6,52.87,25.86l67.39-52.41Z"/><path class="cls-2" d="M346.49,706.74c1.37-14.11,2.05-36.15-8.62-46.83-10.68-10.68-33.31-9.21-46.05-7.84l-83.89,12.11c-26.7,3.85-37.56,36.52-18.49,55.59l90.77,90.77c19.28,19.28,52.29,7.95,55.68-19.1l10.6-84.71Z"/><path class="cls-2" d="M325,487.85h64.08v5.35h-36.72c-4.51.22-5.52,4.24-5.52,6.8v12.15h-5.35v-12.15c0-2.28.61-4.74,1.78-6.8h-18.28"/><path class="cls-2" d="M411.86,512.15h-32.49c-6.07,0-9.7-6.63-9.7-12.15s3.85-12.15,10.25-12.15h31.93v5.35h-30.71c-5.13,0-6.24,4.12-6.24,6.8s1.11,6.8,6.24,6.8h30.71v5.35ZM409.51,502.67h-27.75c-1.45,0-2.67-1.23-2.67-2.68s1.23-2.68,2.67-2.68h27.75v5.35Z"/><path class="cls-2" d="M460.7,512.15h-33.05c-6.07,0-9.7-6.63-9.7-12.15s3.85-12.15,10.25-12.15h32.49v5.35h-31.32c-5.13,0-6.24,4.12-6.24,6.8s1.11,6.8,6.24,6.8h31.32v5.35Z"/><path class="cls-2" d="M505.09,512.15v-3.96c-.17-4.51-4.24-5.52-6.8-5.52h-19.34c-2.28,0-4.74-.61-6.8-1.78v11.26h-5.35v-24.3h5.35v3.62c0,4.79,4.18,5.85,6.8,5.85h19.34c2.29,0,4.74.61,6.8,1.78v-11.26h5.35v24.3h-5.35Z"/><path class="cls-2" d="M554.49,512.15v-12.15c0-2.68-1.11-6.8-6.24-6.8h-20.12c-5.13,0-6.24,4.12-6.24,6.8v12.15M516.54,512.15v-12.15c0-5.63,3.85-12.15,10.25-12.15h23.35c6.07.33,9.7,6.63,9.7,12.15v12.15"/><path class="cls-2" d="M601.05,512.15h-25.41c-6.07-.33-9.7-6.63-9.7-12.15s3.85-12.15,10.25-12.15h25.41c6.07.33,9.7,6.63,9.7,12.15s-3.85,12.15-10.25,12.15ZM606.12,500c0-2.68-1.11-6.8-6.24-6.8h-22.52c-5.13,0-6.24,4.12-6.24,6.8s1.11,6.8,6.24,6.8h22.52c5.13,0,6.24-4.12,6.24-6.8Z"/><path class="cls-2" d="M671.35,512.15l-13.89-17.85c-.46-.56-1.22-1.37-1.98-1.37s-1.52.86-1.93,1.37l-11.32,15.12c-1.22,1.57-3.15,2.64-5.33,2.64-2.03,0-3.91-.96-5.13-2.49l-14.37-18.53,3.65-3.2,13.86,17.82c.46.56,1.22,1.37,1.98,1.37s1.52-.86,1.93-1.37l11.32-15.12c1.17-1.57,3.15-2.64,5.33-2.64,2.03,0,3.96.91,5.13,2.49l14.4,18.56-3.65,3.2Z"/><path class="cls-2" d="M460.7,512.15h-33.05c-6.07,0-9.7-6.63-9.7-12.15s3.85-12.15,10.25-12.15h32.49v5.35h-31.32c-5.13,0-6.24,4.12-6.24,6.8s1.11,6.8,6.24,6.8h31.32v5.35Z"/><path class="cls-2" d="M657.05,503.57c-.39-.47-1.03-1.15-1.68-1.15s-1.28.73-1.63,1.15l-2.17,2.9c-.69.92-.03,2.24,1.12,2.24h5.49c1.16,0,1.82-1.34,1.11-2.26l-2.24-2.88Z"/></svg>