<?xml version="1.0" encoding="UTF-8"?><svg id="Layer_1" xmlns="http://www.w3.org/2000/svg" viewBox="0 0 1000 1000"><defs><style>.cls-1{fill:#83c9e8;}.cls-2{fill:#4848d4;}</style></defs><rect class="cls-2" width="1000" height="1000"/><path class="cls-1" d="M250,701.35v-218.01c0-34.75,27.03-62.42,61.78-62.42,12.22,0,23.81,3.86,33.46,9.65l124.15,75.9v-69.06c0-26.15,7.02-54.21,20.41-77.8h-239.8v-61.22h500v61.22h-156.25c-51.66,2.55-63.14,48.47-63.14,77.8v106.49l109.35,66.85c16.08,9.65,26.38,15.44,33.46,15.44,12.87,0,14.8-16.73,14.8-47.62v-157.55h61.78v218.04c0,34.75-27.03,62.42-61.78,62.42-12.23,0-23.81-3.86-33.46-9.65l-124.15-75.9v85.69h-61.22v-123.12l-109.35-66.85c-16.09-9.65-26.38-15.44-33.46-15.44-12.87,0-14.8,16.73-14.8,47.62v157.52h-61.78Z"/></svg>