<?xml version="1.0" encoding="UTF-8"?><svg id="Layer_1" xmlns="http://www.w3.org/2000/svg" viewBox="0 0 1000 1000"><defs><style>.cls-1{fill:#83c9e8;}</style></defs><path class="cls-1" d="M250,478.93h4.95v42.08h-4.95v-42.08Z"/><path class="cls-1" d="M270.67,521.01h-4.95v-42.08h3.77l.74,1.05,21.41,30.69.06-29.27v-2.48h4.95v2.48l-.06,37.13v2.48h-3.77l-.74-1.05-21.41-30.69v31.75Z"/><path class="cls-1" d="M313.99,521.01h-4.95v-42.08h3.77l.74,1.05,21.41,30.69.06-29.27v-2.48h4.95v2.48l-.06,37.13v2.48h-3.77l-.74-1.05-21.41-30.69v31.75Z"/><path class="cls-1" d="M355.63,484.75c3.59-3.88,7.86-5.82,12.81-5.82,4.95.04,9.24,2,12.87,5.88,3.8,4.13,5.69,9.18,5.69,15.16s-1.92,11.06-5.76,15.22c-3.59,3.88-7.86,5.82-12.81,5.82-4.95-.04-9.24-2-12.87-5.88-3.8-4.13-5.69-9.18-5.69-15.16s1.92-11.06,5.76-15.22ZM358.42,510.86c2.68,3.47,6.02,5.2,10.02,5.2,3.47-.04,6.5-1.42,9.1-4.15,3.01-3.22,4.52-7.2,4.52-11.94,0-4.13-1.2-7.76-3.59-10.89-2.68-3.47-6.02-5.2-10.02-5.2-3.47.04-6.5,1.42-9.1,4.15-3.01,3.22-4.52,7.2-4.52,11.94,0,4.13,1.2,7.76,3.59,10.89Z"/><path class="cls-1" d="M390.66,478.93h5.38l.68,1.49,13.86,31.87,13.74-31.87.68-1.49h5.38l-1.49,3.47-16.03,37.13-.68,1.49h-3.22l-.68-1.49-16.15-37.13-1.49-3.47Z"/><path class="cls-1" d="M435.64,521.01h-5.38l1.49-3.47,16.09-37.13.68-1.49h3.22l.68,1.49,16.09,37.13,1.49,3.47h-5.38l-.68-1.49-13.8-31.87-13.8,31.87-.68,1.49Z"/><path class="cls-1" d="M500.87,478.93h2.48v4.95h-13.55v37.13h-4.95v-37.13h-13.68v-4.95h29.7Z"/><path class="cls-1" d="M509.9,478.93h4.95v42.08h-4.95v-42.08Z"/><path class="cls-1" d="M528.9,484.75c3.59-3.88,7.86-5.82,12.81-5.82,4.95.04,9.24,2,12.87,5.88,3.8,4.13,5.69,9.18,5.69,15.16s-1.92,11.06-5.76,15.22c-3.59,3.88-7.86,5.82-12.81,5.82-4.95-.04-9.24-2-12.87-5.88-3.8-4.13-5.69-9.18-5.69-15.16s1.92-11.06,5.76-15.22ZM531.68,510.86c2.68,3.47,6.02,5.2,10.02,5.2,3.47-.04,6.5-1.42,9.1-4.15,3.01-3.22,4.52-7.2,4.52-11.94,0-4.13-1.2-7.76-3.59-10.89-2.68-3.47-6.02-5.2-10.02-5.2-3.47.04-6.5,1.42-9.1,4.15-3.01,3.22-4.52,7.2-4.52,11.94,0,4.13,1.2,7.76,3.59,10.89Z"/><path class="cls-1" d="M575.12,521.01h-4.95v-42.08h3.77l.74,1.05,21.41,30.69.06-29.27v-2.48h4.95v2.48l-.06,37.13v2.48h-3.77l-.74-1.05-21.41-30.69v31.75Z"/><path class="cls-1" d="M649.81,521.07c-1.9,0-3.67-.23-5.32-.68-4.25-1.28-7.08-3.9-8.48-7.86-1.28-3.67-1.07-7.32.62-10.95.99-2.14,3.47-4.54,7.43-7.18-1.98-3.13-2.97-5.4-2.97-6.81v-.06c.08-2.14.72-3.96,1.92-5.45,1.69-2.06,3.94-3.11,6.74-3.16,1.57,0,3.09.39,4.58,1.18,2.93,1.61,4.39,4.08,4.39,7.43.08,2.35-2.64,5.2-8.17,8.54,2.72,3.63,6.08,7.51,10.09,11.63.58-.87,1.11-1.63,1.61-2.29,2.56-3.47,4.64-5.22,6.25-5.26l2.54-.06v4.95l-2.41.06c-.17,0-.33.04-.49.12-.66.29-1.57,1.55-2.72,3.77-.54,1.03-.95,1.77-1.24,2.23,2.1,2.02,4.11,3.84,6,5.45l5.2,4.39h-7.74l-.68-.56c-1.82-1.53-3.73-3.28-5.76-5.26-3.38,3.84-7.18,5.78-11.39,5.82ZM641.09,503.68c-.04.08-.1.21-.19.37-1.11,2.68-.99,5.26.37,7.73,1.65,2.93,4.5,4.37,8.54,4.33,2.85-.04,5.49-1.53,7.92-4.45-4.13-4.42-7.78-8.83-10.95-13.24-2.97,1.94-4.87,3.69-5.69,5.26ZM649.88,491c.54-.29.95-.52,1.24-.68,1.82-.95,2.7-1.84,2.66-2.66v-.06c0-.74-.21-1.42-.62-2.04-.78-1.16-1.88-1.71-3.28-1.67-.33,0-.66.04-.99.12-1.82.49-2.77,1.73-2.85,3.71,0,.95.58,2.39,1.73,4.33.45-.25,1.15-.6,2.1-1.05Z"/><path class="cls-1" d="M705.44,521.01h-5.38l1.49-3.47,16.09-37.13.68-1.49h3.22l.68,1.49,16.09,37.13,1.49,3.47h-5.38l-.68-1.49-13.8-31.87-13.8,31.87-.68,1.49Z"/><path class="cls-1" d="M745.05,478.93h4.95v42.08h-4.95v-42.08Z"/></svg>