<?xml version="1.0" encoding="UTF-8"?><svg id="Layer_1" xmlns="http://www.w3.org/2000/svg" viewBox="0 0 1000 1000"><defs><style>.cls-1{fill:#83c9e8;}</style></defs><path class="cls-1" d="M125,389.39h259.17v21.64h-148.5c-18.26.9-22.32,17.13-22.32,27.5v49.14h-21.64v-49.14c0-9.24,2.48-19.16,7.21-27.5h-73.93"/><path class="cls-1" d="M476.28,487.66h-131.41c-24.57,0-39.22-26.82-39.22-49.14s15.55-49.14,41.48-49.14h129.16v21.64h-124.2c-20.74,0-25.25,16.68-25.25,27.5s4.51,27.5,25.25,27.5h124.2v21.64ZM466.81,449.35h-112.25c-5.86,0-10.82-4.96-10.82-10.82s4.96-10.82,10.82-10.82h112.25v21.64Z"/><path class="cls-1" d="M673.84,487.66h-133.66c-24.57,0-39.22-26.82-39.22-49.14s15.55-49.14,41.48-49.14h131.41v21.64h-126.68c-20.74,0-25.24,16.68-25.24,27.5s4.51,27.5,25.24,27.5h126.68v21.64Z"/><path class="cls-1" d="M853.36,487.66v-16c-.68-18.26-17.13-22.32-27.5-22.32h-78.22c-9.24,0-19.16-2.48-27.5-7.21v45.53h-21.64v-98.28h21.64v14.65c0,19.38,16.9,23.67,27.5,23.67h78.22c9.24,0,19.16,2.48,27.5,7.21v-45.53h21.64v98.28h-21.64Z"/><path class="cls-1" d="M673.84,487.66h-133.66c-24.57,0-39.22-26.82-39.22-49.14s15.55-49.14,41.48-49.14h131.41v21.64h-126.68c-20.74,0-25.24,16.68-25.24,27.5s4.51,27.5,25.24,27.5h126.68v21.64Z"/><path class="cls-1" d="M278.5,610.61v-49.14c0-10.82-4.51-27.5-25.24-27.5h-81.37c-20.74,0-25.25,16.68-25.25,27.5v49.14M125,610.61v-49.14c0-22.77,15.55-49.14,41.48-49.14h94.44c24.57,1.35,39.22,26.82,39.22,49.14v49.14"/><path class="cls-1" d="M466.81,610.61h-102.78c-24.57-1.35-39.22-26.82-39.22-49.14s15.55-49.14,41.47-49.14h102.78c24.57,1.35,39.22,26.82,39.22,49.14s-15.55,49.14-41.47,49.14ZM487.33,561.47c0-10.82-4.51-27.5-25.25-27.5h-91.06c-20.74,0-25.24,16.68-25.24,27.5s4.51,27.5,25.24,27.5h91.06c20.74,0,25.25-16.68,25.25-27.5Z"/><path class="cls-1" d="M751.11,610.61l-56.19-72.2c-1.85-2.26-4.93-5.54-8.01-5.54s-6.16,3.49-7.8,5.54l-45.77,61.17c-4.93,6.36-12.73,10.67-21.55,10.67-8.21,0-15.8-3.9-20.73-10.06l-58.1-74.93,14.78-12.93,56.05,72.06c1.85,2.26,4.93,5.54,8.01,5.54s6.16-3.49,7.8-5.54l45.77-61.17c4.72-6.36,12.73-10.67,21.55-10.67,8.21,0,16.01,3.69,20.73,10.06l58.24,75.07-14.78,12.93Z"/><path class="cls-1" d="M693.29,575.92c-1.56-1.89-4.17-4.67-6.78-4.67s-5.2,2.95-6.58,4.67l-8.77,11.73c-2.79,3.73-.13,9.05,4.53,9.05h22.19c4.71,0,7.36-5.42,4.47-9.14l-9.06-11.65Z"/></svg>