<?xml version="1.0" encoding="UTF-8"?><svg id="Layer_1" xmlns="http://www.w3.org/2000/svg" viewBox="0 0 1000 1000"><defs><style>.cls-1{fill:#83c9e8;}.cls-2{fill:#4848d4;}</style></defs><rect class="cls-2" width="1000" height="1000"/><path class="cls-1" d="M537.64,754.74c-9.01-10.95-24.11-27.02-39.21-27.02s-30.07,17.04-38.1,27.02l-50.76,67.88c-16.15,21.6-.74,52.38,26.24,52.38h128.37c27.26,0,42.6-31.35,25.86-52.87l-52.41-67.39Z"/><path class="cls-1" d="M706.74,653.51c-14.11-1.37-36.15-2.05-46.83,8.62-10.68,10.68-9.21,33.31-7.84,46.05l12.11,83.89c3.85,26.7,36.52,37.56,55.59,18.49l90.77-90.77c19.28-19.28,7.95-52.29-19.1-55.68l-84.71-10.6Z"/><path class="cls-1" d="M754.74,462.36c-10.95,9.01-27.02,24.11-27.02,39.21s17.04,30.07,27.02,38.1l67.88,50.76c21.6,16.15,52.38.74,52.38-26.24v-128.37c0-27.26-31.35-42.6-52.87-25.86l-67.39,52.41Z"/><path class="cls-1" d="M653.51,293.26c-1.37,14.11-2.05,36.15,8.62,46.83s33.31,9.21,46.05,7.84l83.89-12.11c26.7-3.85,37.56-36.52,18.49-55.59l-90.77-90.77c-19.28-19.28-52.29-7.95-55.68,19.1l-10.6,84.71Z"/><path class="cls-1" d="M462.36,245.26c9.01,10.95,24.11,27.02,39.21,27.02,15.1,0,30.07-17.04,38.1-27.02l50.76-67.88c16.15-21.6.74-52.38-26.24-52.38h-128.37c-27.26,0-42.6,31.35-25.86,52.87l52.41,67.39Z"/><path class="cls-1" d="M293.26,346.49c14.11,1.37,36.15,2.05,46.83-8.62,10.68-10.68,9.21-33.31,7.84-46.05l-12.11-83.89c-3.85-26.7-36.52-37.56-55.59-18.49l-90.77,90.77c-19.28,19.28-7.95,52.29,19.1,55.68l84.71,10.6Z"/><path class="cls-1" d="M245.26,537.64c10.95-9.01,27.02-24.11,27.02-39.21,0-15.1-17.04-30.07-27.02-38.1l-67.88-50.76c-21.6-16.15-52.38-.74-52.38,26.24v128.37c0,27.26,31.35,42.6,52.87,25.86l67.39-52.41Z"/><path class="cls-1" d="M346.49,706.74c1.37-14.11,2.05-36.15-8.62-46.83-10.68-10.68-33.31-9.21-46.05-7.84l-83.89,12.11c-26.7,3.85-37.56,36.52-18.49,55.59l90.77,90.77c19.28,19.28,52.29,7.95,55.68-19.1l10.6-84.71Z"/><path class="cls-1" d="M375,600.67v-109c0-17.37,13.51-31.21,30.89-31.21,6.11,0,11.9,1.93,16.73,4.83l62.07,37.95v-34.53c0-13.07,3.51-27.1,10.2-38.9h-119.9v-30.61h250v30.61h-78.13c-25.83,1.27-31.57,24.23-31.57,38.9v53.24l54.67,33.43c8.04,4.83,13.19,7.72,16.73,7.72,6.44,0,7.4-8.37,7.4-23.81v-78.78h30.89v109.02c0,17.37-13.51,31.21-30.89,31.21-6.11,0-11.91-1.93-16.73-4.83l-62.07-37.95v42.84h-30.61v-61.56l-54.68-33.43c-8.04-4.83-13.19-7.72-16.73-7.72-6.44,0-7.4,8.36-7.4,23.81v78.76h-30.89Z"/></svg>