<?xml version="1.0" encoding="UTF-8"?><svg id="Layer_1" xmlns="http://www.w3.org/2000/svg" viewBox="0 0 1000 1000"><defs><style>.cls-1{fill:#83c9e8;}</style></defs><path class="cls-1" d="M440.69,582.73h1.17v9.98h-1.17v-9.98Z"/><path class="cls-1" d="M445.59,592.71h-1.17v-9.98h.9l.18.25,5.08,7.28v-6.94s.01-.59.01-.59h1.17v9.4s-.01.59-.01.59h-.9l-.18-.25-5.08-7.28v7.53Z"/><path class="cls-1" d="M455.87,592.71h-1.17v-9.98h.9l.18.25,5.08,7.28v-6.94s.01-.59.01-.59h1.17v9.4s-.01.59-.01.59h-.9l-.18-.25-5.08-7.28v7.53Z"/><path class="cls-1" d="M465.75,584.11c.85-.92,1.86-1.38,3.04-1.38,1.17.01,2.19.47,3.05,1.4.9.98,1.35,2.18,1.35,3.6s-.46,2.62-1.37,3.61c-.85.92-1.86,1.38-3.04,1.38-1.17,0-2.19-.47-3.05-1.39-.9-.98-1.35-2.18-1.35-3.6s.46-2.62,1.37-3.61ZM466.41,590.3c.64.82,1.43,1.23,2.38,1.23.82,0,1.54-.34,2.16-.98.71-.76,1.07-1.71,1.07-2.83,0-.98-.28-1.84-.85-2.58-.64-.82-1.43-1.23-2.38-1.23-.82.01-1.54.34-2.16.98-.71.76-1.07,1.71-1.07,2.83,0,.98.28,1.84.85,2.58Z"/><path class="cls-1" d="M474.06,582.73h1.28l.16.35,3.29,7.56,3.26-7.56.16-.35h1.28l-.35.82-3.8,8.81-.16.35h-.76l-.16-.35-3.83-8.81-.35-.82Z"/><path class="cls-1" d="M484.73,592.71h-1.28l.35-.82,3.82-8.81.16-.35h.76l.16.35,3.82,8.81.35.82h-1.28l-.16-.35-3.27-7.56-3.27,7.56-.16.35Z"/><path class="cls-1" d="M500.21,582.73h.59v1.17h-3.22v8.81h-1.17v-8.81h-3.24v-1.17h7.05Z"/><path class="cls-1" d="M502.35,582.73h1.17v9.98h-1.17v-9.98Z"/><path class="cls-1" d="M506.86,584.11c.85-.92,1.86-1.38,3.04-1.38,1.17.01,2.19.47,3.05,1.4.9.98,1.35,2.18,1.35,3.6s-.46,2.62-1.37,3.61c-.85.92-1.86,1.38-3.04,1.38-1.17,0-2.19-.47-3.05-1.39-.9-.98-1.35-2.18-1.35-3.6s.46-2.62,1.37-3.61ZM507.52,590.3c.64.82,1.43,1.23,2.38,1.23.82,0,1.54-.34,2.16-.98.71-.76,1.07-1.71,1.07-2.83,0-.98-.28-1.84-.85-2.58-.64-.82-1.43-1.23-2.38-1.23-.82.01-1.54.34-2.16.98-.71.76-1.07,1.71-1.07,2.83,0,.98.28,1.84.85,2.58Z"/><path class="cls-1" d="M517.82,592.71h-1.17v-9.98h.9l.18.25,5.08,7.28v-6.94s.01-.59.01-.59h1.17v9.4s-.01.59-.01.59h-.9l-.18-.25-5.08-7.28v7.53Z"/><path class="cls-1" d="M535.54,592.73c-.45,0-.87-.05-1.26-.16-1.01-.3-1.68-.92-2.01-1.86-.3-.87-.25-1.74.15-2.6.23-.51.82-1.08,1.76-1.7-.47-.74-.71-1.28-.71-1.62h0c.02-.52.17-.95.46-1.31.4-.49.93-.74,1.6-.75.37,0,.73.09,1.09.28.69.38,1.04.97,1.04,1.76.02.56-.63,1.23-1.94,2.03.65.86,1.44,1.78,2.39,2.76.14-.21.26-.39.38-.54.61-.82,1.1-1.24,1.48-1.25h.6s0,1.16,0,1.16h-.57s-.08.02-.12.04c-.16.07-.37.37-.65.9-.13.24-.23.42-.29.53.5.48.97.91,1.42,1.29l1.23,1.04h-1.84l-.16-.13c-.43-.36-.89-.78-1.37-1.25-.8.91-1.7,1.37-2.7,1.38ZM533.47,588.6s-.02.05-.04.09c-.26.64-.23,1.25.09,1.84.39.69,1.07,1.04,2.03,1.03.68,0,1.3-.36,1.88-1.06-.98-1.05-1.85-2.09-2.6-3.14-.7.46-1.15.88-1.35,1.25ZM535.56,585.59c.13-.07.23-.12.29-.16.43-.23.64-.44.63-.63h0c0-.19-.05-.35-.15-.5-.19-.27-.45-.41-.78-.4-.08,0-.16.01-.23.03-.43.12-.66.41-.68.88,0,.23.14.57.41,1.03.11-.06.27-.14.5-.25Z"/><path class="cls-1" d="M548.74,592.71h-1.28l.35-.82,3.82-8.81.16-.35h.76l.16.35,3.82,8.81.35.82h-1.28l-.16-.35-3.27-7.56-3.27,7.56-.16.35Z"/><path class="cls-1" d="M558.14,582.73h1.17v9.98h-1.17v-9.98Z"/><path class="cls-1" d="M440.98,502.41v-51.47c0-8.2,6.38-14.74,14.58-14.74,2.89,0,5.62.91,7.9,2.28l29.31,17.92v-16.3c0-6.17,1.66-12.8,4.82-18.37h-56.61v-14.45h118.04v14.45h-36.89c-12.2.6-14.91,11.44-14.91,18.37v25.14l25.82,15.78c3.8,2.28,6.23,3.65,7.9,3.65,3.04,0,3.49-3.95,3.49-11.24v-37.19h14.58v51.48c0,8.2-6.38,14.74-14.58,14.74-2.89,0-5.62-.91-7.9-2.28l-29.31-17.92v20.23h-14.45v-29.07l-25.82-15.78c-3.8-2.28-6.23-3.65-7.9-3.65-3.04,0-3.49,3.95-3.49,11.24v37.19h-14.58Z"/><path class="cls-1" d="M250,537.32h91.54v7.64h-52.45c-6.45.32-7.88,6.05-7.88,9.71v17.36h-7.64v-17.36c0-3.26.88-6.77,2.55-9.71h-26.11"/><path class="cls-1" d="M374.08,572.03h-46.42c-8.68,0-13.85-9.47-13.85-17.36s5.49-17.36,14.65-17.36h45.62v7.64h-43.87c-7.32,0-8.92,5.89-8.92,9.71s1.59,9.71,8.92,9.71h43.87v7.64ZM370.73,558.5h-39.65c-2.07,0-3.82-1.75-3.82-3.82s1.75-3.82,3.82-3.82h39.65v7.64Z"/><path class="cls-1" d="M443.86,572.03h-47.21c-8.68,0-13.85-9.47-13.85-17.36s5.49-17.36,14.65-17.36h46.42v7.64h-44.74c-7.32,0-8.92,5.89-8.92,9.71s1.59,9.71,8.92,9.71h44.74v7.64Z"/><path class="cls-1" d="M507.27,572.03v-5.65c-.24-6.45-6.05-7.88-9.71-7.88h-27.63c-3.26,0-6.77-.88-9.71-2.55v16.08h-7.64v-34.71h7.64v5.18c0,6.85,5.97,8.36,9.71,8.36h27.63c3.26,0,6.77.88,9.71,2.55v-16.08h7.64v34.71h-7.64Z"/><path class="cls-1" d="M577.85,572.03v-17.36c0-3.82-1.59-9.71-8.92-9.71h-28.74c-7.32,0-8.92,5.89-8.92,9.71v17.36M523.63,572.03v-17.36c0-8.04,5.49-17.36,14.65-17.36h33.36c8.68.48,13.85,9.47,13.85,17.36v17.36"/><path class="cls-1" d="M644.36,572.03h-36.31c-8.68-.48-13.85-9.47-13.85-17.36s5.49-17.36,14.65-17.36h36.31c8.68.48,13.85,9.47,13.85,17.36s-5.49,17.36-14.65,17.36ZM651.61,554.68c0-3.82-1.59-9.71-8.92-9.71h-32.17c-7.32,0-8.92,5.89-8.92,9.71s1.59,9.71,8.92,9.71h32.17c7.32,0,8.92-5.89,8.92-9.71Z"/><path class="cls-1" d="M744.78,572.03l-19.85-25.5c-.65-.8-1.74-1.96-2.83-1.96s-2.18,1.23-2.76,1.96l-16.17,21.61c-1.74,2.25-4.5,3.77-7.61,3.77-2.9,0-5.58-1.38-7.32-3.55l-20.52-26.47,5.22-4.57,19.8,25.45c.65.8,1.74,1.96,2.83,1.96s2.18-1.23,2.76-1.96l16.17-21.61c1.67-2.25,4.5-3.77,7.61-3.77,2.9,0,5.66,1.3,7.32,3.55l20.57,26.52-5.22,4.57Z"/><path class="cls-1" d="M443.86,572.03h-47.21c-8.68,0-13.85-9.47-13.85-17.36s5.49-17.36,14.65-17.36h46.42v7.64h-44.74c-7.32,0-8.92,5.89-8.92,9.71s1.59,9.71,8.92,9.71h44.74v7.64Z"/><path class="cls-1" d="M724.36,559.78c-.55-.67-1.47-1.65-2.39-1.65s-1.84,1.04-2.33,1.65l-3.1,4.14c-.99,1.32-.04,3.2,1.6,3.2h7.84c1.66,0,2.6-1.91,1.58-3.23l-3.2-4.11Z"/></svg>